<?xml version="1.0" encoding="UTF-8"?>
<svg version="1.1" viewBox="0 0 2048 1126" width="1024" height="563" xmlns="http://www.w3.org/2000/svg">
<path transform="translate(320,297)" d="m0 0h1261l13 1 12 6 8 9 6 12 2 1 56 4 44 4 74 6 8 2 6 4 4 5 4 12v2l9 1 8 7 3 5 1 10 3 39 8 108 3 40v21l-7 93-6 80v9l-2 2 1 1v7l-6 10-7 5-9 1-1 10-6 9-5 4-9 2-48 4-110 9-17 1-2 1-3 9-7 9-8 6-5 2-6 1-1074 1h-259l-83-1-11-4-10-9-6-12-1-7v-52l1-461 4-11 9-10 7-5 7-2zm1498 73v3l3-1v-2zm7 410-7 6-2 4v6l3 3h6l6-5 3-6v-5l-4-3z" fill="#FCAD02"/>
<path transform="translate(320,297)" d="m0 0h1261l13 1 12 6 8 9 6 12 2 1 56 4 44 4 74 6 8 2 6 4 4 5 4 12v2l9 1 8 7 3 5 1 10v6l-1 1h-7l-7-3-6-5-7-9-9-7-6-8-2-6-1-7-7 2-26 2h-45l-8 1h-51l-9-2-3-4v11l7 63 4 47 3 51 2 42v16l-2 1h-43l-17-1-2-47-6-156v-34h11l-13-1-1 13h-172l-97-2h-42l-44 1h-138l-28-1-73-2h-132l-22-1h-35l-7 1h-364l-165-1h-88l-4-2v17l1 2 3 63 3 57 2 48v102l-2 50-1 5-3 54-3 40h-1v-36l-4 2-1 1h-7l-3-2-1-3v-336l5-5 7 1 2 3 2 17 1 35v-52l-1-8v-19h-27l-1-14v-43l4-11 9-10 7-5 7-2zm1498 73v3l3-1v-2z" fill="#AD4B02"/>
<path transform="translate(1643,589)" d="m0 0h15l2 1v13l-12 154-5 57-1 7 4-4h18l29-2 36 2h11l25-1h17l6 2 4 2 1 2 1-11 4-9 7-7 5-3h2l2-5 7-8 6-4h9l-3 2 5 5v8l-6 9-6 4-9 1-1 10-6 9-5 4-9 2-48 4-110 9-17 1-2 1-3 9-7 9-8 6-5 2-6 1-1074 1h-259l-83-1-11-4-10-9-6-12-1-7v-52l1-1 29 1-1 33 8-2 14-1 4 2h17l40-1 22 1 50-1 25-1h17l9 1h5l5-1v2l5-1h14l1-3h9l-3-3 8-1 447 1v1l-416 1v1l-18 3 1 1 19 1 17 1 114 1 7 1 38 1h146l5-1 21-1h104l32 1 7 1 69 1h146l37-1h58l128 1h102l11-1 41-1h29l8 1v-2h9l1 6 2-1-1-1 3-84 3-82 3-69 1-1zm182 191-7 6-2 4v6l3 3h6l6-5 3-6v-5l-4-3z" fill="#AF4C02"/>
<path transform="translate(505,314)" d="m0 0h1l1 14 4 7 2 2 6 1h288l6-2 5-8 1-7h1v8l5-2 3-9 2-2 3 16 4 5 15 1h280l5-1 4-7 2-12h1v11h6l3-12 2-2 1 14 4 7 8 2h285l8-1 4-6 1-3 1-11h1l2 12 1 1h8l1-14 2 2 2 20h94l3-1 8-17h3l3 3 13 2 8-1 2-4 2 5 2 1 56 4 44 4 74 6 8 2 6 4 4 5 4 12v2l9 1 8 7 3 5 1 10v6l-1 1h-7l-7-3-6-5-7-9-9-7-6-8-2-6-1-7-7 2-26 2h-45l-8 1h-51l-9-2-3-4v11l7 63 4 47 3 51 2 42v16l-2 1h-43l-17-1-2-47-6-156v-34h11l-13-1-1 13h-172l-97-2h-42l-44 1h-138l-28-1-73-2h-132l-22-1h-35l-7 1h-364l-165-1h-88l-4-2-2 3v-22l5 2 1-1 1-9h1l3 13 3 4 8 1h287l6-2 5-10 1-7 2 4 4-2 2-5h2zm1313 56v3l3-1v-2z" fill="#D17C09"/>
<path transform="translate(463,461)" d="m0 0h71l13 3 10 6 5 4 7 10 4 10 1 9 1 87v48l-2 33-4 11-8 11-10 8-14 4-15 1h-52l-13-2-9-3-9-6v-2l-4-2v-2h-2l-6-10-2-8v-174l2-9 6-10 11-11 8-4z" fill="#FCAD02"/>
<path transform="translate(1100,463)" d="m0 0h78l11 4 8 5 5 5 6 8 4 9 1 6 1 76v43l-1 48-2 11-6 11-5 6-8 6-10 4-13 2h-66l-12-3-10-5-8-8-7-12-2-12v-162l3-16 6-11 7-7 12-6z" fill="#FCAD02"/>
<path transform="translate(1643,589)" d="m0 0h15l2 1v13l-12 154-5 57-1 7 4-4h18l29-2 36 2h11l25-1h17l6 2 4 2 1 2 1-11 4-9 7-7 5-3h2l2-5 7-8 6-4h9l-3 2 5 5v8l-6 9-6 4-9 1-1 10-6 9-5 4-9 2-48 4-110 9-17 1-2 1-3 9-2-4h-10l-18-3h-8l-1-19-1 20-2 1h-6l-1 2v-15l1-5-25 1-3 14-2-3-2 12h-1v-24l-25 1-2 18h-4l-3 13h-1l-1-29-273-1-1 17-1 5-2-4-1-6h-5l-2 2-1 8h-1l-2-14-3-6-1-1h-307l-4 5-1 4-1 15-2-2-2-9-5-1-3 3-2 11h-1v-29l-24 1-2 2-1 12-4 4-2-17v-2l-25 1-1 17-2-3-3-1h-7l-2 1-1 11h-1l-2-17-4-6h-257l-4 5-2 6-1 7-3-4v-2h-8v11h-1l-2-16-4-7h-254l-5 5-2 16h-1l-1-9-5-4h-5v5h-1l-1-6v-10h-25l-1 12-2-4-1-1-1 2h-2l-1-9h-25v23l-2-3-1-7h-5l-1 3v-24l1-14h1v12l8-2 14-1 4 2h17l40-1 22 1 50-1 25-1h17l9 1h5l5-1v2l5-1h14l1-3h9l-3-3 8-1 447 1v1l-416 1v1l-18 3 1 1 19 1 17 1 114 1 7 1 38 1h146l5-1 21-1h104l32 1 7 1 69 1h146l37-1h58l128 1h102l11-1 41-1h29l8 1v-2h9l1 6 2-1-1-1 3-84 3-82 3-69 1-1zm182 191-7 6-2 4v6l3 3h6l6-5 3-6v-5l-4-3z" fill="#CB6F06"/>
<path transform="translate(1171,809)" d="m0 0h156l50 1 149 4 30 1 12 2h13l7 1v6l-10-2v2h-37l-41 1-11 1h-102l-128-1h-58l-37 1h-146l-69-1-7-1-32-1h-104l-21 1-5 1h-146l-38-1-7-1-117-1-31-2h-5l2-3 13-2 2-2 325-1v-1l274-1z" fill="#F29201"/>
<path transform="translate(1590,342)" d="m0 0 37 3 15 2 4 30 7 67 4 57 3 62v16l-2 1h-43l-17-1-2-47-6-156z" fill="#1B1D1E"/>
<path transform="translate(1643,589)" d="m0 0h15l2 1v13l-12 154-5 57-1 7-7 2-23 3-22 1-1-1 3-84 3-82 3-69 1-1z" fill="#1B1D1E"/>
<path transform="translate(899,832)" d="m0 0h307l4 5 1 3v19l-5 3-225 1h-78l-6-2-4-5v-14l3-7z" fill="#1B1D1E"/>
<path transform="translate(191,308)" d="m0 0h294l6 3 3 4v14l-6 9-5 1h-287l-8-1-4-5-2-7v-10l3-5z" fill="#1C1D1E"/>
<path transform="translate(1162,308)" d="m0 0h295l7 3 3 6v11l-4 8-2 2-8 1h-285l-8-2-5-8v-13l3-5z" fill="#1C1E1F"/>
<path transform="translate(515,308)" d="m0 0h293l7 3 3 4v15l-4 6-2 2-5 1h-288l-7-2-5-6-1-3v-12l3-5z" fill="#1B1D1E"/>
<path transform="translate(839,308)" d="m0 0h296l5 3 3 7v7l-3 9-3 4-5 1h-280l-15-1-5-6-2-8 1-9 5-6z" fill="#1B1D1E"/>
<path transform="translate(1589,320)" d="m0 0h3l3 3 13 2 8-1 2-4 2 5 2 1 56 4 44 4 74 6 8 2 6 4 4 5 4 12v2l9 1 8 7 3 5 1 10v6l-1 1h-7l-7-3-6-5-7-9-9-7-6-8-2-6-1-7-7 2-26 2h-45l-8 1h-51l-9-2-3-4-2 3v-5l-15-1-21-2v-1l-18-2-1 13h-172l-97-2h-42l-44 1h-138l-28-1-44-1v-1h89l12-1 9-2h36l9 1 6-1 32-1 18 1h70l10-2h12l8 1h42l17-1h76l4 2h49l3-1h25v-1h6v1h5v-1h7v-4l-79-1-5-1 1-2 17 1h77l3-1zm229 50v3l3-1v-2z" fill="#E88A08"/>
<path transform="translate(1226,832)" d="m0 0h273l1 1v28l-1 1-36 1h-134l-102-1-2-2v-21z" fill="#1B1D1E"/>
<path transform="translate(540,832)" d="m0 0h257l4 5 2 8v10l-2 5-2 2-43 1h-201l-16-1-5-6v-15l3-6z" fill="#1B1D1E"/>
<path transform="translate(261,832)" d="m0 0h254l5 8 1 14-3 6-3 2-174 1h-75l-7-1-4-4-1-3v-12l2-7z" fill="#1B1D1E"/>
<path transform="translate(147,369)" d="m0 0h1v14h27l1 19 1 8v52l-2 2-1-37-2-17-3-3-7 1-2 3v336l1 3 2 1h7l3-3 3 1v24h1v15l-24-1-6-1z" fill="#D77806"/>
<path transform="translate(804,348)" d="m0 0h43l17 1h129l75 2 35 1h129l58-1h37l92 2 168 1-3 2-6 3h-2l-2 4-5 4-15 2-8 2h-23l-2-1-30-3-51-2-16-1-71-1-117-1-38-2v-2l-4 1-6-1-32-1-17-1h-33l-14 1h-46l-25-1-43-1-28-2h-93l-146-3v-1h86z" fill="#F49401"/>
<path transform="translate(147,786)" d="m0 0 29 1v11l-2 24v21l5-1 1 1 1 7 1-20h25l1 9h2l1-3 2 2 2-8h25l1 10h4l4 1 4 4 1 9 4 6 6 3-3 2-12-1-1 4 20 1h176l3 1 69 1v1h-259l-83-1-11-4-10-9-6-12-1-7v-52z" fill="#AE4D03"/>
<path transform="translate(505,314)" d="m0 0h1v15l3 6 5 4 11 1 25 1h143l69-1 2 2-34 1-29 1h-10l-1 1h41l16-1 6 2v2l-11 1-246 1h-63l-165-1h-88l-4-2-2 3v-22l5 2 1-1 1-9h1l3 13 3 4 8 1h287l6-2 5-10 1-7 2 4 4-2 2-5h2z" fill="#D17A09"/>
<path transform="translate(1827,775)" d="m0 0h9l-3 2 5 5v8l-6 9-6 4-9 1-1 10-6 9-5 4-9 2-48 4-110 9-17 1-2 1-3 9-2-4h-10l-18-3h-8l-1-22 1-2h9l1 6 10-1v-1l31-3 15-3 2-3h18l29-2 36 2h11l25-1h17l6 2 4 2 1 2 1-11 4-9 7-7 5-3h2l2-5 7-8zm-2 5-7 6-2 4v6l3 3h6l6-5 3-6v-5l-4-3z" fill="#E78A0A"/>
<path transform="translate(164,406)" d="m0 0 7 1 2 3 1 8v302l-1 29-3 3h-7l-3-2-1-3v-336z" fill="#1C1D1E"/>
<path transform="translate(533,844)" d="m0 0h1l1 12 4 5 16 1h243l1 7-4 2h-348l-9-1h-178l-10-1-2-1 1-5 12 1v-2h80l174-1 4-4 2-3 1-9h8l2 4z" fill="#994202"/>
<path transform="translate(1541,823)" d="m0 0h29l7 1-1 23-2 1h-6l-1 2v-15l1-5-25 1-3 14-2-3-2 12h-1v-24l-25 1-2 18h-4l-3 13h-1l-1-29-273-1-1 17-1 5-2-4-1-6h-5l-2 2-1 8h-1l-2-14-3-6-1-1h-307l-4 5-2 2 1-5 4-4 23-3 25-1 244-1 41-2h28l128 1h102l11-1z" fill="#B35804"/>
<path transform="translate(1672,330)" d="m0 0 16 1 34 3 74 6 8 2 6 4 4 5 4 12v2l9 1 8 7 3 5 1 10v6l-1 1h-7l-7-3-6-5-7-9-9-7-6-8-2-6-1-7-7 2-26 2h-45l-8 1h-51l-9-2-3-4-2 3v-5l-15-1-21-2v-1l-5-1 4-2 9-1h34l17-2 8 1 2 3 3-9h-6zm146 40v3l3-1v-2z" fill="#E68809"/>
<path transform="translate(1486,308)" d="m0 0h96l8 1 2 2-1 7-9 19-4 2h-77l-17-1-2-12v-15z" fill="#1C1E1F"/>
<path transform="translate(176,366)" d="m0 0h1l3 63 3 57 2 48v102l-2 50-1 5-3 54-3 40h-1v-36l-2-1v-265l1-56h1l1 35v-52l-1-8v-19h-17v-1h18z" fill="#AD4902"/>
<path transform="translate(1826,397)" d="m0 0h9l3 7 1 3 3 35v20l3 29 2 6 5 62v17l-1 1h-16l-2-18-3-30-5-64-3-39-2-12v-15z" fill="#E17107"/>
<path transform="translate(1590,342)" d="m0 0 16 1v2l3 3v7l-1 5-1 24v27l-1 28-1 14 1 18 1 9 1 32v62l-1 3h-2v2h-7l-2-47-6-156z" fill="#454240"/>
<path transform="translate(1598,591)" d="m0 0 5 1 1 5h2l1 5 1 35v31l-1 18v42l1 15-1 9v27l-1 35 1 5-2 5 7 1v1l-22 1-1-1 3-84 3-82z" fill="#464341"/>
<path transform="translate(1835,594)" d="m0 0h16v29l-7 92-3 20-2 27-3 10h-11l-2-2v-10l4-49 1-13 1-28 5-65z" fill="#E07007"/>
<path transform="translate(174,808)" d="m0 0h1v12l8-2 14-1 4 2h17l40-1 22 1 50-1 25-1h17l9 1h5l5-1v2l5-1h14l1-3h9l-3-3 8-1 447 1v1l-416 1v1l-18 3 1 1 19 1 14 1-4 2-10 1h-221l11 3 2 2-7 3h-3v-2h-25l-1 12-2-4-1-1-1 2h-2l-1-9h-25v23l-2-3-1-7h-5l-1 3v-24z" fill="#E98A02"/>
<path transform="translate(147,369)" d="m0 0h1v14h27l1 19 1 8v52l-2 2-1-37-2-17-3-3-7 1-3 4-1 33-1 6-2 10 2 1-3 9-1 6-2 1v232l-1 4v72h-3z" fill="#E68708"/>
<path transform="translate(1206,861)" d="m0 0 3 1h-2l2 6-2 2h-307l-5-1 2-4 15-1 1-1 68-1z" fill="#994202"/>
<path transform="translate(147,786)" d="m0 0 29 1v11l-3 38-2 33-6-1-8-6-6-7-4-9-1-7v-52z" fill="#534A3B"/>
<path transform="translate(167,300)" d="m0 0h4l3 36 2 28v18l-28 1-1-14v-43l4-11 9-10z" fill="#46423E"/>
<path transform="translate(261,862)" d="m0 0h254l2 6-1 2h-256l-10-1-2-1 1-5 12 1z" fill="#994203"/>
<path transform="translate(1312,345)" d="m0 0h13l8 1h42l17-1h76l3 2-14 2-17 3h-7l-5 1-42-1h-110l-44 1h-138l-28-1-44-1v-1h89l12-1 9-2h36l9 1 6-1 32-1 18 1h70z" fill="#DB7B07"/>
<path transform="translate(190,738)" d="m0 0 5 2 4 5 6 15 4 4 5 9 5 5 4 9 4 4 4 3 14 2 1 3-2 1-34 3-5 1-13-2-3-2-5-14-1-4v-14l2-3 2-21 2-5z" fill="#F49401"/>
<path transform="translate(896,851)" d="m0 0 4 2 12 1h43l12 1h100l7-1h112l1 2-9 2v2l-15 1h-259l-7-3-1-1z" fill="#2E2B28"/>
<path transform="translate(1227,862)" d="m0 0h271v1l-5 1 2 2v3l-9 1-265-1 2-4 4-1z" fill="#994202"/>
<path transform="translate(257,851)" d="m0 0 15 2h213l1 3h-41v2l6-1 16 1h19v2l-129 1h-93l-6-3z" fill="#2E2B28"/>
<path transform="translate(1579,827)" d="m0 0 7 1h25l25-1 7 1h16l8 1 3-2h8l-1 3 5 1v-4h4l2 6-2 3-20 2h-9v2l-19 2-17 1-2 1-3 9-2-4h-10l-18-3h-8v-18z" fill="#CC7809"/>
<path transform="translate(181,320)" d="m0 0h1l3 13 3 4 10 2 43 2h87l8 2h22l12 1h13l12 2v2l-127 1h-88l-4-2-2 3v-22l5 2 1-1z" fill="#CD7909"/>
<path transform="translate(175,346)" d="m0 0 6 2h87l166 1h165v1l-95 1h-198l-42 2-9 2-10 2-10 1h-10l-6 1-12 1-5 1-3-1v2l-7-1-4 1h-6l-5-2-2 4z" fill="#F49401"/>
<path transform="translate(1227,852)" d="m0 0 11 1h13l31 1 13 1h3 116l14-1h30l5 1 10-1 3 1-5 4h-9l1 2h-202l-20-1h-13l-1-1z" fill="#2E2B28"/>
<path transform="translate(174,427)" d="m0 0h1l1 35 1-31h1l1 62-1 13v19l1 27v17l-1 20 1 23-1 13v97l-1 19-1 8-3-1v-265z" fill="#C16405"/>
<path transform="translate(152,702)" d="m0 0h1v11h2l2 4 2-2 1 32 1 3 2 1h7l3-3 3 1v24h1v15l-24-1-3-1-1-2v-70l2-4z" fill="#E48508"/>
<path transform="translate(542,852)" d="m0 0h7l6 1h18l19 1 8 1 5-1 5 1h92l2-1h48l14-1h18l1 2h-2l-1 2h-4l-9 1h-11l-7 2-1 1h-173l-5-1-8-1v-2l-4 1-2-1v-2l-4 2h-9l-2-1v-2l-3-1z" fill="#2E2B28"/>
<path transform="translate(946,827)" d="m0 0h61l195 1 5 2 2 2-1 3-2-2h-307l-4 5-2 2 1-5 4-4 23-3z" fill="#EB9602"/>
<path transform="translate(573,827)" d="m0 0h194l24 1 6 2 5 6-1 2-4-5h-257l-4 5-2 6-1 7h-1v-9l3-8 5-4 11-2z" fill="#EC9602"/>
<path transform="translate(816,823)" d="m0 0h126l7 1 69 1h146l37-1h30v1l-41 2-244 1-25 1-23 3-4 5-1 20-2-2-2-9-5-1-3 3-2 11h-1v-30l-2-3h-21l-6 1-10-2-23-1z" fill="#AF5103"/>
<path transform="translate(1589,320)" d="m0 0h3l3 3 13 2 8-1 2-4 2 5 2 1 28 2 17 1 5 1v2h6l-2 10-3-2v-2h-8l-20 2h-37l-3 1h-17v2h-5l-1-4 3-7 1-6z" fill="#C96D05"/>
<path transform="translate(234,823)" d="m0 0h74l138 1 33 1 1 2-174 2-38 1-9 2-3 3-1 4-1 15h-1l-1-9-5-4h-5v5h-1l-1-6v-8l8-3-2-2-12-3z" fill="#C86C06"/>
<path transform="translate(533,844)" d="m0 0h1l1 12 4 5 16 1 59 1 1 2-81 1v4l45-1h199l17 1v1h-348v-1h69l-1-9 4-4 2-3 1-9h8l2 4z" fill="#AA4602"/>
<path transform="translate(1237,828)" d="m0 0h260l4 3-1 3-1-1-273-1v7l-2 2v-7l2-4z" fill="#EA9602"/>
<path transform="translate(854,830)" d="m0 0h24v24l-1 14-1 1h-25l-1-1v-23l1-12z" fill="#1B1D1E"/>
<path transform="translate(215,830)" d="m0 0h25l2 24v13l-3 2h-22l-2-2-1-6v-29z" fill="#1B1D1E"/>
<path transform="translate(1543,830)" d="m0 0h25l-2 27-1 10-1 2h-26v-13l3-22z" fill="#1B1D1E"/>
<path transform="translate(182,830)" d="m0 0h25l4 30v8l-1 1h-23l-3-1-1-2-1-13z" fill="#1C1D1E"/>
<path transform="translate(1510,830)" d="m0 0h25v25l-1 14h-23l-4-4 1-22 1-12z" fill="#1B1D1E"/>
<path transform="translate(820,830)" d="m0 0h25l1 2 1 36-1 1h-24l-2-10-1-17v-11z" fill="#1B1D1E"/>
<path transform="translate(806,822)" d="m0 0h104v1l-71 1 11 2 5-1h21l3 5-25 1-2 2-1 12-4 4-2-17v-2l-25 1-1 17-2-3-3-1h-7l-2 1-1 11h-1l-2-20-5-6-5-1-24-1v-1l16-2 2-2z" fill="#CD7106"/>
<path transform="translate(306,828)" d="m0 0h207l5 5 2 3-1 3-4-6h-254l-5 5-2 1 2-6 5-3 7-1z" fill="#ED9A02"/>
<path transform="translate(1644,349)" d="m0 0 3 3 9 2h51l12-1h43l24-2 7-1v8l-8 1h-89l-1 2 11 1 63 9 16 3-4 1-69-9-19-3-29-3h-8l-10-4-2-3z" fill="#F49401"/>
<path transform="translate(174,808)" d="m0 0h1v14l12-1 147 1 19 1v1h-116l11 3 2 2-7 3h-3v-2h-25l-1 12-2-4-1-1-1 2h-2l-1-9h-25v23l-2-3-1-7h-5l-1 3v-24z" fill="#CE7809"/>
<path transform="translate(1541,823)" d="m0 0h29l7 1-1 23-2 1h-6l-1 2v-15l1-5-25 1-3 14-2-3-2 12h-1v-24l-25 1-2 18h-4l-3 13h-1v-28l1-5h2v-2h-9v-1l6-1v-1z" fill="#CC7107"/>
<path transform="translate(1799,341)" d="m0 0 5 1 6 4 4 5 4 12v2l9 1 8 7 3 5 1 10v5l-9-1-10-6-4-6-1-5-2-1-2-6-6 1v-2l-4-2-5-10 1-5v-8zm19 29v3l3-1v-2z" fill="#C97F12"/>
<path transform="translate(453,813)" d="m0 0h81l-3 2 15 2 13 1 1 1 7 1v1l-11 1h-84l-31-2h-5l2-3 13-2z" fill="#FCAB01"/>
<path transform="translate(1822,398)" d="m0 0h9l1 1 1 11-1 103-2 4-2-13-4-50-2-28-2-12v-15z" fill="#AD4802"/>
<path transform="translate(1827,775)" d="m0 0h9l-3 2 5 5v8l-6 9-6 4-9 1-1 10-6 9-5 4-11 2-1-1 1-17 4-9 7-7 5-3h2l2-5 7-8zm-2 5-7 6-2 4v6l3 3h6l6-5 3-6v-5l-4-3z" fill="#282522"/>
<path transform="translate(1832,639)" d="m0 0h1l1 7v121l-2 4-9-1v-10l4-49 1-13 1-28 2-29z" fill="#AB4602"/>
<path transform="translate(147,369)" d="m0 0h1l1 14 1 403h-3z" fill="#FCAC02"/>
<path transform="translate(1692,815)" d="m0 0 37 2h11l25-1h17l6 2 4 2 2 9-13 1v-2l5-1-2-2-15-2-30-2h-10l-10 1-30 1-9 2-10-3h-23l-4 2-4-1 2-2 4-2 1-2h18z" fill="#F49401"/>
<path transform="translate(1580,845)" d="m0 0 11 1 13 2h10l1 1-1 7-8 9-10 5-6 1h-74v-1h62v-24z" fill="#B14E02"/>
<path transform="translate(1526,472)" d="m0 0h13l9 1 4 3v3l-3 2-22 1-7-1-17-2-4-1-144-2-151-1v-1h293l27-1z" fill="#DE7D02"/>
<path transform="translate(194,546)" d="m0 0 3 1 4 8 12 6v4l-6 8-1 8 1 7-2 5-4 1v2h-2l-4 12h-2l-2-4-1-14v-23l1-4 1-13z" fill="#F49401"/>
<path transform="translate(819,842)" d="m0 0h1l2 27 24-1v-24l2 3 2-1 1 22 26 1 11 1v1h-93l1-2h3l-2-6 4-4 2-4 1-10 3-2h7l4 2z" fill="#B14F02"/>
<path transform="translate(492,332)" d="m0 0 1 2-4 6-7 1-74 1h-173l-37-2v-1l285-1 6-2z" fill="#EE9406"/>
<path transform="translate(819,321)" d="m0 0h1v8l-4 8-2 3-57 1-76 1h-132l-24-1-11-1-7-6-2-5 1-4 4 9 3 3 6 1h288l6-2 5-8z" fill="#F19905"/>
<path transform="translate(1576,825)" d="m0 0 2 2v43l-62 1h-25l1-2h3l-2-4-6-1v-1l11-1 3-2 2-11 2-2 3 2v16l3 3 23 1v-14l1-1 2-12 2-4 1 10-2 21h26l2-23 2 2 8-1z" fill="#A54402"/>
<path transform="translate(1130,347)" d="m0 0h38l21 2 22 1h53l12 1v1l-44 1h-138l-28-1-44-1v-1h89l12-1z" fill="#E78809"/>
<path transform="translate(1729,335)" d="m0 0 19 1 36 3 7 1-4 4-5 2-24 1h-42l-17-1-13-3v-2h28l13-1h19v-2h-10l-7-2z" fill="#DC7D06"/>
<path transform="translate(884,844)" d="m0 0 5 1 2 5 2 6 5 5 15 2-1 2-13 1-2-1-1 3 4 1h42l124 1v1h-178l-11-1-1-2 1-14 2-3 3-6z" fill="#A94402"/>
<path transform="translate(1587,832)" d="m0 0h12l9 2 14 2 4 3-1 3-6 2-3 9-2-4h-10l-18-3h-8v-13z" fill="#C86C05"/>
<path transform="translate(557,344)" d="m0 0h47l13 1h114l16-1 6 2v2l-18 1-196-1 1-2z" fill="#C86C06"/>
<path transform="translate(265,343)" d="m0 0h93l12 1h13l12 2v2h-120l-11-1z" fill="#C86C06"/>
<path transform="translate(1143,318)" d="m0 0h1v11l-3 8-3 3-82 1-103 1-83-1-30-1v-1l292-1 5-1 4-7z" fill="#E78809"/>
<path transform="translate(161,414)" d="m0 0 4 1v48l-1 29-2 3-1 119h-1l-1-146v-52z" fill="#33302D"/>
<path transform="translate(167,300)" d="m0 0h4l3 36 2 28v18h-15v-1l9-1v-13l-2-7-1-3h-3l-2-4 7-3v-12l-1-4-9-2 1-3 6-5 2-4v-9l-1-2-10 2 6-8z" fill="#1E1F20"/>
<path transform="translate(147,786)" d="m0 0 29 1v11l-3 38-2 33-6-1-8-6-6-7-1-4 3 1 6 7 7 1 1-1v-9l-3-7h3v-10l1-3 1-25v-16l-22-1z" fill="#20201F"/>
<path transform="translate(447,869)" d="m0 0m-184 0h181l3 1 69 1v1h-259l4-2z" fill="#C56803"/>
<path transform="translate(757,340)" d="m0 0 7 1v1l-34 1-29 1h-10l-5 2h-75l-11-1v-2h-23l2-2h114z" fill="#D87A07"/>
<path transform="translate(577,824)" d="m0 0h222v1l-24 2h-193l-5-2z" fill="#9C4202"/>
<path transform="translate(1647,821)" d="m0 0h23l12 4-1 2-13 1-1 2-11-1h-13l-7-1-25 1h-25l-7-1-2-1 1-5h9l1 6 10-1v-1l41-4 4 1z" fill="#E58608"/>
<path transform="translate(442,467)" d="m0 0 2 1-11 11-6 12-1 6v174l3 10 4 6-1 2-6-8-2-7-1-13v-159l2-13 6-11 7-8z" fill="#C26205"/>
<path transform="translate(173,748)" d="m0 0 3 1v23l-1 13-1-3-9-1-8-3-1-4 2-3 1-4 4-9 6-3h2v-2h2z" fill="#D97A07"/>
<path transform="translate(804,348)" d="m0 0h43l17 1h129v1l-82 1h-143l-57-1v-1h86z" fill="#E98907"/>
<path transform="translate(1682,333)" d="m0 0 40 1 12 2 2 1 10 1v2l-32 2h-28l-5 1-1-2 5-1v-3l-3-1z" fill="#CA770A"/>
<path transform="translate(245,840)" d="m0 0 4 1 4 4 1 9 4 6 6 3-3 2-12-1-1 4 12 1 1 2h-19l-25-1v-1l22-1 2-1v-21l1-5z" fill="#A84402"/>
<path transform="translate(896,826)" d="m0 0 50 1v1l-25 1-23 3-4 5-1 20-2-2-2-9-5-1-3 3-2 11h-1v-17l2-10 3-2h4l1-2 6 3 1-4z" fill="#C86C06"/>
<path transform="translate(824,824)" d="m0 0h15l11 2 5-1h21l3 5-25 1-2 2-1 12-4 4-2-17v-2l-25 1-2 4v-6l3-1v-2h3z" fill="#D17A09"/>
<path transform="translate(1520,340)" d="m0 0h47l4 3h-4v2l-2 2h-12-1-29l-6 1h-39l1-2 35-2 15-2-9-1z" fill="#DB7B07"/>
<path transform="translate(216,571)" d="m0 0h10l12 2 5 4-1 4-7 4-9 1h-10l-4-5v-6z" fill="#1D1E1E"/>
<path transform="translate(1535,825)" d="m0 0h30l7 1 1 3-4 2h-26l-3 14-2-3-2 12h-1v-24l-25 1-2 3v-6l12-2z" fill="#D27B09"/>
<path transform="translate(174,384)" d="m0 0h1l2 26v52l-2 2-1-37-1-17 1-5-16-6 2-9 9-3 4-1z" fill="#DA7A07"/>
<path transform="translate(175,346)" d="m0 0 6 2h87v1l-13 1-38 2-28 3h-12l-1 9h-1z" fill="#E58608"/>
<path transform="translate(1538,838)" d="m0 0h1l1 10-1 8v14l-23 1h-25l1-2h3l-2-4-6-1v-1l11-1 3-2 2-11 2-2 3 2v16l3 3 23 1v-14l1-1 2-12z" fill="#A94502"/>
<path transform="translate(281,821)" d="m0 0h107l28 1 43-1h13l-4 2-10 1h-105l-19-1-53-1z" fill="#E68708"/>
<path transform="translate(505,314)" d="m0 0h1v15l3 6 5 6v2l-8 1-13-2-2-2 3-10 1-11 2 4 4-2 2-5h2z" fill="#C86C06"/>
<path transform="translate(1826,397)" d="m0 0h6l2 1 1 16v71l-1 27-2 15-2-2v-8l1-4 1-103-1-11-5-1z" fill="#C86C06"/>
<path transform="translate(441,824)" d="m0 0 38 1 1 2h-155l3-2z" fill="#A24302"/>
<path transform="translate(1665,337)" d="m0 0 8 1 2 4-12 3-9 1-10-1-7-2h-20l-11 1v-1l-5-1 4-2 9-1h34z" fill="#CE7909"/>
<path transform="translate(164,332)" d="m0 0 5 2 1 4v12l-4 2h-8l-5-4-1-9 1-3z" fill="#AC4A02"/>
<path transform="translate(160,358)" d="m0 0h7l3 4 1 11-2 2-4 1h-7l-5-3-1-3v-7l2-3z" fill="#DA6E06"/>
<path transform="translate(1821,370)" d="m0 0h6l6 7 1 2v10l-2 2-6-1-6-4-4-6-1-7 3-1h3z" fill="#FDFAF5"/>
<path transform="translate(157,793)" d="m0 0h9l2 3v14l-1 1h-11l-4-3-1-8 2-5z" fill="#D36A06"/>
<path transform="translate(156,818)" d="m0 0h8l4 2 1 2v8l-3 5-2 1-9-1-3-3-1-8 2-5z" fill="#DA6B07"/>
<path transform="translate(1801,790)" d="m0 0 3 1-6 2-54 8-45 8-23 3h-10v-1l10-2-2-2h13l5 1v-2l12-1 47-8z" fill="#EC8C05"/>
<path transform="translate(1807,801)" d="m0 0 5 1 2 3v8l-1 2h-2v3l-5 4h-6l-3-4v-7l6-8z" fill="#FDF5E5"/>
<path transform="translate(1676,638)" d="m0 0h3l-2 37-2 38h-4l1-32 3-42z" fill="#23211E"/>
<path transform="translate(1672,461)" d="m0 0h3l3 54 1 21h-4l-3-41z" fill="#23201E"/>
<path transform="translate(155,841)" d="m0 0h6l5 5 2 4v9l-2 2-7-1-7-8-1-7z" fill="#F6A502"/>
<path transform="translate(829,316)" d="m0 0h1l2 15 1 4 2 6-1 1h-18l-1-3 4-10 6-2 3-9z" fill="#C86C06"/>
<path transform="translate(1794,341)" d="m0 0h5l-2 1 1 9-1 4 5 10 3 2v2l6-1 8 15 5 5 9 4 6 1-1 2h-7l-7-3-6-5-7-9-9-7-6-8-2-6z" fill="#252424"/>
<path transform="translate(1267,827)" d="m0 0h236v2h-2l-1 2-3-2-230-1z" fill="#DB7B07"/>
<path transform="translate(1803,347)" d="m0 0 4 1 5 6 2 6v6l-1 1-9-1-3-1-5-10 1-4z" fill="#FDFAF3"/>
<path transform="translate(1547,586)" d="m0 0h12l5 2-1 5h-18l-3-2-61-1v-1l7-1 56-1z" fill="#EC8D03"/>
<path transform="translate(1154,315)" d="m0 0h1v16l4 6 1 4-5 1-6 1-9-2v-4l3-8h7l3-12z" fill="#C86C06"/>
<path transform="translate(840,339)" d="m0 0h131l-3 3-98-1-30-1z" fill="#F19905"/>
<path transform="translate(164,308)" d="m0 0 4 1 1 2v9l-4 6-2 2-7-1-4-3 1-6 7-8z" fill="#F6A602"/>
<path transform="translate(158,553)" d="m0 0h1v105l-2 2-1-5 1-10-2-6v-5-4-11l1-22 1-9v-18z" fill="#E68708"/>
<path transform="translate(1480,316)" d="m0 0 2 2 1 14-1 8-3 2h-8l-5-2-1-3 1-9 1-11h1l2 12 1 1h8z" fill="#C86D06"/>
<path transform="translate(263,869)" d="m0 0h76l41 1v1l-63 1h-60l4-2z" fill="#BF6002"/>
<path transform="translate(1007,827)" d="m0 0h202l1 3 1 8-2-1-2-6-5-2-195-1z" fill="#DF7E07"/>
<path transform="translate(176,366)" d="m0 0h1l3 63v38h-2l-2-57-1-8v-19h-17v-1h18z" fill="#A54803"/>
<path transform="translate(819,321)" d="m0 0h1v8l-4 8-2 3-57 1h-52v-2l102-1 6-2 5-8z" fill="#E78808"/>
<path transform="translate(330,341)" d="m0 0h125v1l-14 1-101 1h-5l-5-2z" fill="#D97A07"/>
<path transform="translate(1494,826)" d="m0 0h12v12h3l-1 11h-4l-3 13h-1v-28l1-5h2v-2h-9z" fill="#C86C06"/>
<path transform="translate(577,824)" d="m0 0h57v1l47 1v1h-99l-5-2z" fill="#AA4502"/>
<path transform="translate(1834,647)" d="m0 0h1l1 77v42l-2 5-2-1 1-3v-33z" fill="#C86C06"/>
<path transform="translate(181,320)" d="m0 0h1l3 14 1 7-7 1-3-1-1 9h-1v-22l5 2 1-1z" fill="#C76B06"/>
<path transform="translate(1842,722)" d="m0 0h1l-1 19-2 28v9l-2 2 1 1v7h-1l-2-7-7-6-1-3h8l2-10 3-36z" fill="#EF9D0F"/>
<path transform="translate(211,836)" d="m0 0 2 2 1 4 1 19 2 8h-7v-9l-2-21h2z" fill="#A94402"/>
<path transform="translate(1811,794)" d="m0 0 3 1 4 9-3 12-7 9-7 3-3-1v-5l8-1 3-3h2v-3h2v-10l-3-10z" fill="#7D602D"/>
<path transform="translate(157,793)" d="m0 0 4 1v17l-7-1-3-5 1-9z" fill="#A84402"/>
<path transform="translate(1799,341)" d="m0 0 5 1 6 4 4 5 2 5 1 10-5 2 1-2-1-10-4-6-2-2-5 1-3 2-1-1v-8z" fill="#8C6624"/>
<path transform="translate(1143,318)" d="m0 0h1v11l-3 8-3 3-78 1v-2l72-1 5-1 4-7z" fill="#E58708"/>
<path transform="translate(1575,832)" d="m0 0h1v15l-2 1h-6l-1 2v-15z" fill="#C66A05"/>
<path transform="translate(176,410)" d="m0 0h1v52l-2 2-1-37-1-16z" fill="#CD7709"/>
<path transform="translate(492,332)" d="m0 0 1 2-4 6-7 1h-51l1-2 51-1 6-2z" fill="#E78809"/>
<path transform="translate(1827,775)" d="m0 0h9l-3 2 5 5v8l-4 6-2 1 1-5 1-2v-8l-3-2-6 1-6 5-2 2-2-1 2-4 8-7z" fill="#483621"/>
<path transform="translate(1832,397)" d="m0 0 4 1 3 9 3 35v17h-1l-2-17-1-17-2-10-2-17z" fill="#E98A07"/>
<path transform="translate(1393,827)" d="m0 0h110v2h-2l-1 2-3-2-104-1z" fill="#C97007"/>
<path transform="translate(160,358)" d="m0 0 2 1-1 4v13l-6-1-3-5v-7l2-3z" fill="#A54402"/>
<path transform="translate(164,332)" d="m0 0 5 2 1 9-1 5-7 1-2-5 1-6 3-3-2-2z" fill="#DA6C07"/>
<path transform="translate(896,826)" d="m0 0 50 1v1l-25 1-23 3h-3l-1-4z" fill="#DB7C07"/>
<path transform="translate(156,818)" d="m0 0h7l-4 2v11l2 5-6-1-3-3-1-8 2-5z" fill="#A54402"/>
<path transform="translate(1609,583)" d="m0 0h28l1 3-3 1h-25l-2-2z" fill="#F49401"/>
<path transform="translate(455,821)" d="m0 0h17l-4 2-10 1h-46l2-2z" fill="#E78809"/>
<path transform="translate(1538,838)" d="m0 0h1l1 10-1 8v14h-5v-15l1-1 2-12z" fill="#A94802"/>
<path transform="translate(1830,371)" d="m0 0 4 1 4 6 1 10v5l-9-1 3-3v-10l-3-5z" fill="#976F1E"/>
<path transform="translate(181,831)" d="m0 0h1v22l-2-3-1-7h-5l-1 3v-9l3-5 4 1z" fill="#C36605"/>
<path transform="translate(1672,330)" d="m0 0 16 1 20 2v1h-25v2l2 1v3l-5 1-3-2 1-7h-6z" fill="#D78307"/>
<path transform="translate(1682,333)" d="m0 0h10l19 2v2l-6 1h-17l-3 1v-2l-3-1z" fill="#C86C06"/>
<path transform="translate(713,863)" d="m0 0h40v2l-22 1-34-1v-1z" fill="#A74402"/>
<path transform="translate(1827,779)" d="m0 0 6 1 2 2v8l-2 4-1 5-6 4-7 1 2-2-4-2-1-4 3 2h6l5-4 3-6v-5l-6-3z" fill="#EBB152"/>
<path transform="translate(1830,681)" d="m0 0h1l1 14v11l-2 13h-2v-21z" fill="#9B4202"/>
<path transform="translate(1543,827)" d="m0 0h24l2 1v2l-26 1-2 6h-1v-7z" fill="#FAAB02"/>
<path transform="translate(1692,806)" d="m0 0h12v2l-28 4h-10v-1l10-2-2-2h13l5 1z" fill="#F49401"/>
<path transform="translate(1120,346)" d="m0 0 10 1-4 2-5 1-17 1h-11l3-2 11-2z" fill="#DB7B07"/>
<path transform="translate(846,844)" d="m0 0 2 3 2-1 1 23-4 1h-9v-1l8-1z" fill="#A94502"/>
<path transform="translate(1511,827)" d="m0 0h23l2 1-1 3h-25l-2 3v-6z" fill="#F3A102"/>
<path transform="translate(176,366)" d="m0 0h1l1 36h-3v-19h-17v-1h18z" fill="#BE5F04"/>
<path transform="translate(220,827)" d="m0 0h19l2 3h-26l-1 3-1-4z" fill="#ED9804"/>
<path transform="translate(182,827)" d="m0 0h23l3 1v2h-27z" fill="#EB9404"/>
<path transform="translate(1842,452)" d="m0 0 2 2 2 28v10l-2-1-3-32z" fill="#F49C03"/>
<path transform="translate(860,827)" d="m0 0 18 1 1 2-25 1-4 5v-8z" fill="#EE9902"/>
<path transform="translate(473,821)" d="m0 0 33 1v1l-14 1h-34l4-2z" fill="#D87A07"/>
<path transform="translate(602,343)" d="m0 0h22l20 1 4 2h-37l-9-2z" fill="#CD790A"/>
<path transform="translate(180,446)" d="m0 0h1l1 18v12h-1l-1 17h-1l-1-15v-11h2z" fill="#B85503"/>
<path transform="translate(1794,811)" d="m0 0 3 2 3 9h-2v5l3-1v2l-7 1-1-1z" fill="#564B3B"/>
<path transform="translate(1552,340)" d="m0 0h15l4 3-4 1h-13l-9-2v-1z" fill="#CD790A"/>
<path transform="translate(1617,342)" d="m0 0h20l5 2v1l-15 1-17-2v-1z" fill="#E48707"/>
<path transform="translate(190,817)" d="m0 0h7v3l-10 2h-12v-2l8-2z" fill="#F49501"/>
<path transform="translate(829,827)" d="m0 0 17 1v2l-26 1-2 4v-6l1-1z" fill="#EE9B03"/>
<path transform="translate(855,825)" d="m0 0h21l1 3h-27v-2z" fill="#E08108"/>
<path transform="translate(442,467)" d="m0 0 2 1-11 11-6 12-2 14h-1v-13l7-14 7-8z" fill="#A64D04"/>
<path transform="translate(1520,340)" d="m0 0h32l-3 3-16 1-4-2-9-1z" fill="#E78809"/>
<path transform="translate(847,830)" d="m0 0 2 1v7h2v7l-4 4-2-18z" fill="#D27306"/>
<path transform="translate(1539,830)" d="m0 0h1l1 10-1 5-2-3-2 12h-1v-21l3-1z" fill="#C66A06"/>
<path transform="translate(789,826)" d="m0 0h8l3 1 1 5h-3l-2-2-5-1-24-1v-1z" fill="#D77A07"/>
<path transform="translate(197,818)" d="m0 0 9 1h11l1 3h-30v-1l9-1z" fill="#F39301"/>
<path transform="translate(1834,401)" d="m0 0h1l3 20 1 4v10l-2-4-2-7-1-10z" fill="#DB7A07"/>
<path transform="translate(1816,383)" d="m0 0 4 1 4 4 9 4 6 1-1 2h-7l-7-3-6-5z" fill="#2D2824"/>
<path transform="translate(775,828)" d="m0 0h16l6 2 5 6-1 2-4-5-22-1v-1l12-1-12-1z" fill="#F29703"/>
<path transform="translate(819,321)" d="m0 0h1v8l-4 8-2 3h-24v-1l17-1 6-2 5-8z" fill="#F4A203"/>
<path transform="translate(260,828)" d="m0 0h46v1l-38 1-10 2z" fill="#E08007"/>
<path transform="translate(1809,795)" d="m0 0 2 1 2 7-6-1-5 3-4 4 1-5 8-8z" fill="#484340"/>
<path transform="translate(1794,341)" d="m0 0h5l-2 1 1 9-1 4 1 5-3 1-1-4z" fill="#3D3933"/>
<path transform="translate(536,827)" d="m0 0h21v1l-17 3-3 1-5-1 1-3z" fill="#D47A08"/>
<path transform="translate(210,853)" d="m0 0 2 2 2-2 2 14 1 2h-7z" fill="#9C4202"/>
<path transform="translate(1237,828)" d="m0 0h17v1l-13 1-1 1-14 1v7l-2 2v-7l2-4z" fill="#F29B02"/>
<path transform="translate(1672,836)" d="m0 0h13l1 2-29 2v-2z" fill="#ED9306"/>
<path transform="translate(210,829)" d="m0 0 3 1 1 3v9l-2-4-1-1-1 2h-2l-1-9z" fill="#C76B05"/>
<path transform="translate(1565,825)" d="m0 0h10l1 1v6l-2 2h-6l1-4 3-2v-2h-7z" fill="#CD790A"/>
<path transform="translate(876,825)" d="m0 0 7 1 4 4-6 2-2 10h-1v-13z" fill="#CD7909"/>
<path transform="translate(492,332)" d="m0 0 1 2-4 6-4 1-30-1v-1l28-1 6-2z" fill="#F6A502"/>
<path transform="translate(179,721)" d="m0 0h1v10l-1 14-2-4v-18z" fill="#B65403"/>
<path transform="translate(824,825)" d="m0 0h10l13 2v4l-2-1 1-2h-25v-2z" fill="#E38305"/>
<path transform="translate(183,858)" d="m0 0 1 2 3 1 2 1v2l4 2v1l-9 1-1-2z" fill="#2E2B28"/>
<path transform="translate(839,824)" d="m0 0h40v1l-24 1-6 1-10-2z" fill="#C86C06"/>
<path transform="translate(794,347)" d="m0 0h9l1 2-7 1h-12l-11-1v-1z" fill="#DB7B07"/>
<path transform="translate(811,825)" d="m0 0h13l-3 1v2l-2 1-1 5-1-4-6-1z" fill="#CD7909"/>
<path transform="translate(1802,365)" d="m0 0 12 2h2v3l2 1-2 3-1 3v-2l-2-1-2-6-6 1v-2l-3-1z" fill="#FDAE02"/>
<path transform="translate(1186,827)" d="m0 0h23l1 3 1 8-2-1-2-6-5-2-16-1z" fill="#D97D07"/>
<path transform="translate(162,303)" d="m0 0v3l-4 4v3l-5 6h-2l1-5 7-8z" fill="#40382B"/>
<path transform="translate(1559,825)" d="m0 0 13 1 1 3-4 2v-3l-25-1v-1z" fill="#E78809"/>
<path transform="translate(1585,332)" d="m0 0 2 4 2 2-1 5h-5l-1-4z" fill="#CD7909"/>
<path transform="translate(1811,794)" d="m0 0 3 1 4 9-1 6h-1l-1-6-3-3-2-6z" fill="#F7A702"/>
<path transform="translate(1832,397)" d="m0 0 4 1 3 9v8l-1-4h-2l-2-13z" fill="#EE8E04"/>
<path transform="translate(1143,318)" d="m0 0h1v11l-3 8-2 2-4-1 4-4 3-9z" fill="#F3A002"/>
<path transform="translate(1808,368)" d="m0 0h3l5 9-1 2-10-9z" fill="#464341"/>
<path transform="translate(1668,341)" d="m0 0h4v2l-16 3-7-1v-1l13-2z" fill="#DB7B07"/>
<path transform="translate(846,844)" d="m0 0 2 3 2-1v9l-4 2z" fill="#B95E04"/>
<path transform="translate(515,827)" d="m0 0 8 1 1 3-6 3-5-6z" fill="#D17A09"/>
<path transform="translate(174,808)" d="m0 0h1v14l12-1-1 2-9 1-2 5h-1z" fill="#DA7C08"/>
<path transform="translate(902,828)" d="m0 0h19v1l-21 2z" fill="#E78808"/>
<path transform="translate(1478,827)" d="m0 0h25v2h-2l-1 2-3-2-19-1z" fill="#E38508"/>
<path transform="translate(1229,827)" d="m0 0h15v1l-10 2h-8l-1-2z" fill="#DA7C07"/>
<path transform="translate(1729,335)" d="m0 0 19 1 1 2h-13l-7-2z" fill="#ED9405"/>
<path transform="translate(1598,826)" d="m0 0h16l-3 3h-9z" fill="#E48906"/>
<path transform="translate(1617,342)" d="m0 0 13 1v1l-13 1-7-1v-1z" fill="#E88F06"/>
<path transform="translate(538,831)" d="m0 0m-1 1 2 2-3 4-2 6-1 7h-1v-9l3-8z" fill="#F8A702"/>
<path transform="translate(162,339)" d="m0 0h2l1 2v6l-4-1-1-6z" fill="#FBAA02"/>
<path transform="translate(831,331)" d="m0 0 6 6 15 1v1h-17l-4-5z" fill="#E08904"/>
<path transform="translate(1506,826)" d="m0 0 5 1-3 1 1 10h-3z" fill="#D87D08"/>
<path transform="translate(197,818)" d="m0 0 7 2v2h-16v-1l9-1z" fill="#EE8F04"/>
<path transform="translate(1815,791)" d="m0 0h1l1 9 5 1-3 3-3-3-4-8z" fill="#5F523A"/>
<path transform="translate(1832,513)" d="m0 0h1v10l-2 4-1-2v-8z" fill="#CB6C06"/>
<path transform="translate(168,830)" d="m0 0h1v12l-1 5-3-1-1-3h3v-10z" fill="#2E2B29"/>
<path transform="translate(256,827)" d="m0 0h11v1l-7 1-3 3-4-2v-2z" fill="#CD790A"/>
<path transform="translate(542,827)" d="m0 0h15v1l-16 2z" fill="#D87B08"/>
<path transform="translate(161,811)" d="m0 0h7l-2 6-4-2z" fill="#1E1F1F"/>
<path transform="translate(1813,803)" d="m0 0 3 1v10l-2 2-1-3z" fill="#51493A"/>
<path transform="translate(795,827)" d="m0 0h5l1 5h-3l-2-2-5-1z" fill="#DD7D07"/>
<path transform="translate(1798,822)" d="m0 0h8l-4 4-4 1z" fill="#D78306"/>
<path transform="translate(157,793)" d="m0 0 4 1-7 3-2 8h-1l1-9z" fill="#9A4202"/>
</svg>
